<svg width="640" height="420" viewBox="0 0 640 420" fill="none" xmlns="http://www.w3.org/2000/svg">
  <defs>
    <linearGradient id="byte-bg" x1="84" y1="44" x2="560" y2="386" gradientUnits="userSpaceOnUse">
      <stop stop-color="#052B2F"/>
      <stop offset="1" stop-color="#0A4A4D"/>
    </linearGradient>
    <linearGradient id="byte-coat" x1="222" y1="214" x2="430" y2="364" gradientUnits="userSpaceOnUse">
      <stop stop-color="#E7FFFD"/>
      <stop offset="1" stop-color="#8CF2E7"/>
    </linearGradient>
  </defs>
  <rect width="640" height="420" rx="36" fill="url(#byte-bg)"/>
  <rect x="42" y="42" width="556" height="336" rx="28" stroke="#2DD4BF" stroke-opacity="0.15" stroke-width="2"/>
  <path d="M78 312H562" stroke="#99F6E4" stroke-opacity="0.2" stroke-width="8" stroke-linecap="round"/>
  <path d="M168 122H472" stroke="#14B8A6" stroke-opacity="0.3" stroke-width="14" stroke-linecap="round"/>
  <circle cx="320" cy="140" r="74" fill="#F0FDFA"/>
  <path d="M258 124C264 86 294 60 334 60C374 60 405 86 414 124H258Z" fill="#0F172A"/>
  <path d="M278 340C278 285.876 321.876 242 376 242H376C430.124 242 474 285.876 474 340V352H278V340Z" fill="url(#byte-coat)"/>
  <path d="M166 340C166 281.458 213.458 234 272 234H302V352H166V340Z" fill="#14B8A6" fill-opacity="0.9"/>
  <rect x="286" y="112" width="76" height="18" rx="9" fill="#14B8A6"/>
  <rect x="312" y="82" width="18" height="90" rx="9" fill="#0F172A"/>
  <circle cx="284" cy="156" r="10" fill="#052E30"/>
  <circle cx="356" cy="156" r="10" fill="#052E30"/>
  <path d="M296 184C304.5 188.667 312.5 191 320 191C327.5 191 335.5 188.667 344 184" stroke="#134E4A" stroke-width="6" stroke-linecap="round"/>
  <path d="M446 92L498 92" stroke="#5EEAD4" stroke-width="6" stroke-linecap="round"/>
  <path d="M472 66L472 118" stroke="#5EEAD4" stroke-width="6" stroke-linecap="round"/>
  <text x="46" y="64" fill="#ECFEFF" font-family="Bahnschrift, Arial, sans-serif" font-size="34" font-weight="700">Byte Regent</text>
  <text x="46" y="98" fill="#99F6E4" font-family="Arial, sans-serif" font-size="18">senhor das probabilidades frias</text>
</svg>
