<svg width="640" height="420" viewBox="0 0 640 420" fill="none" xmlns="http://www.w3.org/2000/svg">
  <defs>
    <linearGradient id="solar-bg" x1="76" y1="38" x2="558" y2="386" gradientUnits="userSpaceOnUse">
      <stop stop-color="#3B2A04"/>
      <stop offset="1" stop-color="#A16207"/>
    </linearGradient>
    <linearGradient id="solar-coat" x1="206" y1="220" x2="438" y2="362" gradientUnits="userSpaceOnUse">
      <stop stop-color="#FFFBEA"/>
      <stop offset="1" stop-color="#FEF08A"/>
    </linearGradient>
  </defs>
  <rect width="640" height="420" rx="36" fill="url(#solar-bg)"/>
  <circle cx="506" cy="92" r="108" fill="#FACC15" fill-opacity="0.22"/>
  <circle cx="126" cy="332" r="124" fill="#FDE047" fill-opacity="0.14"/>
  <path d="M202 344C202 277.726 255.726 224 322 224H334C400.274 224 454 277.726 454 344V356H202V344Z" fill="url(#solar-coat)"/>
  <circle cx="320" cy="144" r="72" fill="#FFFDF5"/>
  <path d="M252 130C264 88 300 58 344 58C378 58 408 76 424 108C403 96 377 90 346 90C307 90 277 104 252 130Z" fill="#EAB308"/>
  <path d="M286 108L320 64L354 108" stroke="#FDE047" stroke-width="10" stroke-linecap="round" stroke-linejoin="round"/>
  <circle cx="290" cy="156" r="9" fill="#713F12"/>
  <circle cx="350" cy="156" r="9" fill="#713F12"/>
  <path d="M298 186C305 191.333 312.333 194 320 194C327.667 194 335 191.333 342 186" stroke="#A16207" stroke-width="6" stroke-linecap="round"/>
  <path d="M466 116L500 82" stroke="#FDE047" stroke-width="8" stroke-linecap="round"/>
  <path d="M454 142L516 142" stroke="#FDE047" stroke-width="8" stroke-linecap="round"/>
  <path d="M468 168L502 202" stroke="#FDE047" stroke-width="8" stroke-linecap="round"/>
  <text x="46" y="64" fill="#FFFBEA" font-family="Bahnschrift, Arial, sans-serif" font-size="34" font-weight="700">Solar Drift IX</text>
  <text x="46" y="98" fill="#FDE047" font-family="Arial, sans-serif" font-size="18">alto risco, brilho total</text>
</svg>
